<svg height="384" viewBox="0 0 2214 384" width="2214" xmlns="http://www.w3.org/2000/svg"><g transform="matrix(.1 0 0 -.1 0 384)"><path d="m5771 3829c-561-59-1066-366-1384-842-451-674-426-1574 62-2227 71-96 235-265 331-343 333-269 752-417 1182-417 1049 0 1898 859 1898 1920 0 626-298 1203-815 1575-118 85-352 202-496 248-261 84-519 113-778 86zm333-1349c109-28 169-63 258-151 59-58 86-94 113-150 48-103 69-203 61-304-25-303-271-535-568-535-168 0-292 51-408 169s-170 247-170 406c0 163 57 303 170 415 146 146 346 201 544 150z"/><path d="m9821 3829c-654-74-1211-465-1505-1055-94-190-161-415-186-626-20-166-8-461 24-613 82-390 272-735 553-1006 341-328 771-510 1243-526 409-13 775 91 1111 315 439 294 724 734 826 1277 24 127 28 436 9 579-118 840-743 1494-1566 1637-134 23-385 32-509 18zm376-1359c275-95 442-391 379-673-59-263-268-442-531-455-176-8-309 42-431 164-276 274-213 735 126 922 52 28 125 55 180 66 57 11 216-3 277-24z"/><path d="m802 3808c-13-17-792-1259-792-1264 0-2 353-5 786-6l785-3-776-1240c-427-682-781-1248-786-1257-9-17 66-18 1524-18h1533l393 625c215 344 394 632 398 640 4 13-95 15-780 15h-785l780 1248c429 686 783 1253 785 1260 7 18-3050 18-3065 0z"/><path d="m12160 1921v-1901h620 620v445 445h208c134 0 239 5 297 15 491 79 902 403 1097 865 333 785-76 1690-882 1954-217 70-202 69-1127 74l-833 3zm1611 694c62-21 109-63 144-126 26-46 30-65 30-129 0-65-4-83-30-129-31-56-88-106-148-128-19-7-98-12-199-12l-168-1v270 270h163c120 0 175-4 208-15z"/><path d="m15365 3808c-3-7-4-861-3-1898l3-1885 623-3 622-2v445 445h208c245 0 342 13 517 71 214 71 395 182 554 339 283 281 431 636 432 1035 1 364-115 681-352 960-197 234-489 406-795 470-141 29-297 35-1057 35-589 0-749-3-752-12zm1625-1199c207-93 216-384 15-492-36-20-58-22-217-25l-178-4v271 271h168c146 0 173-3 212-21z"/><path d="m19301 3787c-5-12-354-856-775-1874s-769-1859-772-1867c-6-14 59-16 658-16h663l81 212 80 213 676 3 676 2 70-177c38-98 75-195 83-216l13-37h673c370 0 673 3 673 8 0 4-350 853-779 1887l-778 1880-617 3-616 2zm775-1888c80-217 149-402 151-411 5-17-15-18-312-18h-316l7 23c3 12 74 204 157 425 96 260 153 399 158 390 4-8 74-192 155-409z"/></g></svg>